#tb 0: 1/25
#media_type 0: video
#codec_id 0: rawvideo
#dimensions 0: 256x636
#sar 0: 1/1
0,          0,          0,        1,   651264, 0x0db0c41d
0,          1,          1,        1,   651264, 0x9ad3f4b0
0,          2,          2,        1,   651264, 0x4eb983db
0,          3,          3,        1,   651264, 0xc9c59394
0,          4,          4,        1,   651264, 0x3e976248
0,          5,          5,        1,   651264, 0x5a7f1087
0,          6,          6,        1,   651264, 0x687bc062
0,          7,          7,        1,   651264, 0x4ea41c60
0,          8,          8,        1,   651264, 0x8815ebd9
0,          9,          9,        1,   651264, 0x4c95e43e
0,         10,         10,        1,   651264, 0xd5c8496e
0,         11,         11,        1,   651264, 0x2458e264
0,         12,         12,        1,   651264, 0x60fee9bf
0,         13,         13,        1,   651264, 0xd793455f
0,         14,         14,        1,   651264, 0x900912d7
0,         15,         15,        1,   651264, 0x34271d20
0,         16,         16,        1,   651264, 0x60bc6341
0,         17,         17,        1,   651264, 0x5c412903
0,         18,         18,        1,   651264, 0x016896cc
0,         19,         19,        1,   651264, 0x7c46ed9f
0,         20,         20,        1,   651264, 0xb769334c
0,         21,         21,        1,   651264, 0x43abadb1
0,         22,         22,        1,   651264, 0x4a2f4242
0,         23,         23,        1,   651264, 0xe8e3daf8
0,         24,         24,        1,   651264, 0x8de8c599
0,         25,         25,        1,   651264, 0x68d750bf
0,         26,         26,        1,   651264, 0x1ad4a918
0,         27,         27,        1,   651264, 0xf89f6185
0,         28,         28,        1,   651264, 0x1582c6b0
0,         29,         29,        1,   651264, 0xe99e74d4
0,         30,         30,        1,   651264, 0x92f4d036
0,         31,         31,        1,   651264, 0x9099a129
0,         32,         32,        1,   651264, 0xda9a2d37
0,         33,         33,        1,   651264, 0x9a43a631
0,         34,         34,        1,   651264, 0xba462aee
0,         35,         35,        1,   651264, 0xd3671f7d
0,         36,         36,        1,   651264, 0xd870403c
0,         37,         37,        1,   651264, 0x7d60441c
0,         38,         38,        1,   651264, 0xc75ca38d
0,         39,         39,        1,   651264, 0x4e824d7d
0,         40,         40,        1,   651264, 0x6070b0e2
0,         41,         41,        1,   651264, 0x4f099c3c
0,         42,         42,        1,   651264, 0x822011b9
0,         43,         43,        1,   651264, 0xef1dc769
0,         44,         44,        1,   651264, 0x388b98d5
0,         45,         45,        1,   651264, 0x812dbfd8
0,         46,         46,        1,   651264, 0x1edb19fc
0,         47,         47,        1,   651264, 0xe45409f9
0,         48,         48,        1,   651264, 0x25169365
0,         49,         49,        1,   651264, 0x7240e8e1
